# xmcd
#
# Track frame offsets: 
#        150
#        23527
#        55287
#        95080
#        111658
#        131859
#        159145
#        184261
#        211517
#        231037
#        258269
#        278681
#
# Disc length: 3929 seconds
#
# Revision: 0
# Processed by: cddbd v1.5.1PL0 Copyright (c) Steve Scherf et al.
# Submitted via: ExactAudioCopy v0.90b4
#
DISCID=a00f570c
DTITLE=Various Artist - Dream Palace - Live Vol. II
DYEAR=2001
DGENRE=Rock
TTITLE0=Can't Call Home - Dwayne Dopsie and The Zydeco Hellraisers
TTITLE1=Bus Station Blues - Little Freddie King
TTITLE2=Geranium - Juice
TTITLE3=Samba `95 - Casa Samba
TTITLE4=Quick Pick - Ready Teddy
TTITLE5=Dischargia - Hector Gallardo's Impulso
TTITLE6=Sundays - Hobson's Choice
TTITLE7=Miquel Los Hombres No Llaron - Son Del Pantano
TTITLE8=Sunday's Girl (Just a Fool) - Back Porch Rockers
TTITLE9=Baby's Gone - Darby
TTITLE10=I Like the Sound of That - The Revealers
TTITLE11=Stardust - Summer Stages
EXTD=
EXTT0=
EXTT1=
EXTT2=
EXTT3=
EXTT4=
EXTT5=
EXTT6=
EXTT7=
EXTT8=
EXTT9=
EXTT10=
EXTT11=
PLAYORDER=
